<svg id="Layer_1" data-name="Layer 1" xmlns="http://www.w3.org/2000/svg" viewBox="0 0 874.84 228.06"><defs><style>.cls-1{fill:#00b6bd;}</style></defs><path class="cls-1" d="M143.72,97.81a2.28,2.28,0,0,1,1.94,3.49l-41.19,66.05a2.29,2.29,0,0,0-.26,1.84l18.67,65.35a2.28,2.28,0,0,1-2.19,2.9H89.45A3.41,3.41,0,0,1,86.16,235L72.79,187.9a2.27,2.27,0,0,0-2.19-1.65H58.91a2.28,2.28,0,0,0-2.25,1.88l-8.27,46.49A3.42,3.42,0,0,1,45,237.44h-28a3.42,3.42,0,0,1-3.37-4L37.11,100.64a3.42,3.42,0,0,1,3.37-2.83h28a3.43,3.43,0,0,1,3.37,4l-9.09,51.49A2.27,2.27,0,0,0,65,156h8.44a2.29,2.29,0,0,0,1.93-1.06l35.16-55.52a3.41,3.41,0,0,1,2.89-1.6Z" transform="translate(-13.63 -12.1)"/><path class="cls-1" d="M229,207.58q0,5,5.14,5a20.84,20.84,0,0,0,5.63-.71,2.27,2.27,0,0,1,2.85,2.3l-.77,17.33a2.29,2.29,0,0,1-.88,1.71,32.16,32.16,0,0,1-20.11,6.91q-21.35,0-23.66-15.52-9.71,15.53-28.51,15.52-31.8,0-31.8-27.35a60.48,60.48,0,0,1,1-10.27l4.07-22.69Q145,162.39,156.19,152t29.09-10.38q16,0,22.78,6.6a1.15,1.15,0,0,0,1.95-.6l.26-1.57a2.29,2.29,0,0,1,2.25-1.91h27.55l-10.86,61.09A14.1,14.1,0,0,0,229,207.58Zm-57.4-9.31a23.38,23.38,0,0,0-.39,4.85c0,2.07,1,4.1,2.91,6.11s5.2,3,9.79,3a15.7,15.7,0,0,0,11.69-5.17,1.21,1.21,0,0,0,.3-.61l5.69-31.85a1.18,1.18,0,0,0-.09-.72q-2.26-4.5-9.93-4.51-14.93,0-17.45,14.35Z" transform="translate(-13.63 -12.1)"/><path class="cls-1" d="M290.87,207.58c0,3.36,1.72,5,5.14,5a20.79,20.79,0,0,0,5.63-.71,2.27,2.27,0,0,1,2.85,2.3l-.75,16.8a3.33,3.33,0,0,1-1.32,2.56,32.16,32.16,0,0,1-19.69,6.59q-17.66,0-22.89-8.15a21,21,0,0,1-3.29-11.44,67.73,67.73,0,0,1,.77-10.86L278,93.08a3.42,3.42,0,0,1,3.37-2.83h26a3.42,3.42,0,0,1,3.37,4l-19.65,111A14.1,14.1,0,0,0,290.87,207.58Z" transform="translate(-13.63 -12.1)"/><path class="cls-1" d="M407.62,207.58q0,5,5.14,5a20.77,20.77,0,0,0,5.62-.71,2.26,2.26,0,0,1,2.85,2.3l-.77,17.33a2.26,2.26,0,0,1-.88,1.71,32.16,32.16,0,0,1-20.11,6.91q-21.33,0-23.66-15.52-9.69,15.53-28.51,15.52-31.8,0-31.8-27.35a60.48,60.48,0,0,1,1-10.27l4.07-22.69q3.1-17.46,14.26-27.83t29.08-10.38q16,0,22.79,6.6a1.14,1.14,0,0,0,1.94-.6l.26-1.57a2.29,2.29,0,0,1,2.25-1.91h27.55l-10.86,61.09A14.08,14.08,0,0,0,407.62,207.58Zm-57.41-9.31a23.38,23.38,0,0,0-.39,4.85c0,2.07,1,4.1,2.91,6.11s5.21,3,9.8,3a15.68,15.68,0,0,0,11.68-5.17,1.15,1.15,0,0,0,.31-.61l5.69-31.85a1.18,1.18,0,0,0-.1-.72q-2.26-4.5-9.92-4.51-14.94,0-17.46,14.35Z" transform="translate(-13.63 -12.1)"/><path class="cls-1" d="M594,212.62a17.37,17.37,0,0,0,4.81-.64,2.29,2.29,0,0,1,3,2.27L601,231a3.34,3.34,0,0,1-1.29,2.54,31.48,31.48,0,0,1-19.53,6.59q-26.37,0-26.37-22.11a48.62,48.62,0,0,1,.77-8.34l4.07-23.85a42.25,42.25,0,0,0,.59-7q0-9.31-10.19-9.31a18.69,18.69,0,0,0-15.65,7.5,2.2,2.2,0,0,0-.44,1l-9.88,56.54a3.42,3.42,0,0,1-3.37,2.83h-26a3.42,3.42,0,0,1-3.36-4l8.4-47.57a42.24,42.24,0,0,0,.58-7q0-9.31-10.47-9.31a19,19,0,0,0-14.35,6.4l-10.36,58.65a3.42,3.42,0,0,1-3.37,2.82h-26a3.42,3.42,0,0,1-3.37-4L446.68,147a3.41,3.41,0,0,1,3.36-2.83h25a2.28,2.28,0,0,1,2.24,2.7l-.9,4.92a1.13,1.13,0,0,0,1.93,1,35.86,35.86,0,0,1,26.81-11.33q25.2,0,28.7,16.68Q545.5,141.45,565,141.45t25.3,8.73a23.77,23.77,0,0,1,3.88,13.18,79.07,79.07,0,0,1-1,13l-4.84,28.89a12.07,12.07,0,0,0-.2,2.13Q588.16,212.62,594,212.62Z" transform="translate(-13.63 -12.1)"/><path class="cls-1" d="M654.29,212.62a17.37,17.37,0,0,0,4.81-.64,2.29,2.29,0,0,1,3,2.27L661.34,231a3.34,3.34,0,0,1-1.29,2.54,31.48,31.48,0,0,1-19.53,6.59q-17.64,0-22.88-8.15a20.94,20.94,0,0,1-3.49-11.54,65.81,65.81,0,0,1,.77-10.76L626.06,147a3.42,3.42,0,0,1,3.37-2.83h26a3.43,3.43,0,0,1,3.37,4l-10.14,57.07a13.1,13.1,0,0,0-.2,2.13Q648.47,212.62,654.29,212.62ZM630.44,112.55q0-12.4,5.52-18.13t17.17-5.72q16.29,0,16.29,14.35,0,12.23-5.53,17.84t-17.36,5.63Q630.43,126.52,630.44,112.55Z" transform="translate(-13.63 -12.1)"/><path class="cls-1" d="M736.51,177.91q0-8.34-8-8.34a16.82,16.82,0,0,0-12.84,5.51,2.22,2.22,0,0,0-.56,1.16l-10.25,58.37a3.42,3.42,0,0,1-3.37,2.83h-26a3.42,3.42,0,0,1-3.37-4L687.34,147a3.42,3.42,0,0,1,3.37-2.83h25a2.28,2.28,0,0,1,2.24,2.7l-.87,4.7a1.13,1.13,0,0,0,1.93,1,35.1,35.1,0,0,1,26.21-11.11q17.46,0,22.69,8.53a23.42,23.42,0,0,1,3.3,12.41,82.54,82.54,0,0,1-1,13L765,205.25a13,13,0,0,0-.19,2.13q0,5.24,5.81,5.24a17.39,17.39,0,0,0,4.82-.64,2.29,2.29,0,0,1,3,2.27L777.7,231a3.38,3.38,0,0,1-1.3,2.54,31.45,31.45,0,0,1-19.52,6.59q-26.39,0-26.38-22.11a48.69,48.69,0,0,1,.78-8.34l4.65-25.79A37.1,37.1,0,0,0,736.51,177.91Z" transform="translate(-13.63 -12.1)"/><path class="cls-1" d="M831.54,240.16q-22.5,0-32.39-10.09-7.36-7.37-7.37-19.78a52.89,52.89,0,0,1,.78-8.72l12.86-73.21a3.4,3.4,0,0,1,2.06-2.56l28-11.64a3.42,3.42,0,0,1,4.68,3.75l-4.1,23.58a2.28,2.28,0,0,0,2.25,2.67h46.73a3.43,3.43,0,0,1,3.37,4l-3.63,20.5a3.42,3.42,0,0,1-3.37,2.83H830.76l-3.88,21.91a32.2,32.2,0,0,0-.77,6.59q0,12.23,11.63,12.22A12.77,12.77,0,0,0,848.12,207a28.69,28.69,0,0,0,5.17-11.33,3.43,3.43,0,0,1,3.32-2.64h25.26a3.42,3.42,0,0,1,3.35,4.14Q875.82,240.16,831.54,240.16Z" transform="translate(-13.63 -12.1)"/><path class="cls-1" d="M136.18,0h9.32a2.38,2.38,0,0,1,2.38,2.38V11.7a64,64,0,0,1-64,64H74.57a2.38,2.38,0,0,1-2.38-2.38V64A64,64,0,0,1,136.18,0Z"/></svg>