<svg id="Layer_1" data-name="Layer 1" xmlns="http://www.w3.org/2000/svg" viewBox="0 0 463.75 321.91"><defs><style>.cls-1{fill:#fefefe;}.cls-2{fill:#49dbcc;}.cls-3{fill:#fefdfd;}.cls-4{fill:#09bab5;}.cls-5{fill:#3ad6ca;}.cls-6{fill:#27ccc3;}.cls-7{fill:#29ccc4;}.cls-8{fill:#1ac6c1;}.cls-9{fill:#00b7be;}.cls-10{fill:#0cc1c1;}.cls-11{fill:#4741ce;}.cls-12{fill:#2b2b2b;}.cls-13{fill:#e8fcfd;}.cls-14{fill:#7ae2e5;}.cls-15{fill:#9dcdf8;}.cls-16{fill:#a8e0f1;}.cls-17{fill:#a3d8f4;}.cls-18{fill:#5b5bd8;}.cls-19{fill:#7be1e7;}.cls-20{fill:#7fd4f0;}</style></defs><path class="cls-1" d="M354.22,147c3.45,4.27,6.88,8.57,10.37,12.81,6.92,8.41,12.34,7.69,19.89.79,3.4-3.1,6.71-6.23,10.74-8.55,11-6.33,23.35-4.19,31.46,6a45.92,45.92,0,0,1,7.19,13.54c2.45,7,6.91,10.11,14.31,10.16,4.68,0,9.32-.72,14-.62a14.75,14.75,0,0,1,12.53,6.8,58.94,58.94,0,0,1,8.49,20.45c.53,2.34-.14,2.69-2.18,2.68-11.87,0-23.75,0-35.63,0-1.47,1.34-3.3,1-5,.94-29.5-.37-59,0-88.52-.17-6.34,0-12.68.22-19-.15a2.32,2.32,0,0,1-.85-.45,3.29,3.29,0,0,1-.23-3.14c1.6-5.46-.48-9.83-4-13.78a28.27,28.27,0,0,1-2.66-3.12c-1.05-2-2.26-1.88-3.92-.55-7.53,6-15.29,11.74-22.82,17.77-1.63,1.31-3.16,2.84-5.34,3.3a64,64,0,0,1-7.71.1c-3-.08-4.13-1.16-4.47-4.12-.48-4.06,1.46-7.09,4.33-9.64a24,24,0,0,1,5.72-3.82c7.27-3.44,10.48-9.42,11.07-17.13a12.31,12.31,0,0,1,.24-1.91c.59-1.59.32-3.29.55-4.92A39.35,39.35,0,0,1,312.32,149a35.9,35.9,0,0,1,22.12-10c5.7-.28,11.22.25,16,3.78C352,143.92,353.61,145,354.22,147Z" transform="translate(-29.77 -94.3)"/><path class="cls-2" d="M391.79,370.29c-1.13,6.74-5.69,10.34-13.33,10.5A159.64,159.64,0,0,1,351,379.22c-5.52-.84-11.1-1.23-16.67-1.69a16.46,16.46,0,0,0-5.75.37c-1.18.32-2.51.3-2.93,1.63s.91,2.14,1.76,2.87c3.64,3.13,8.08,5.07,12,7.83,2.17,1.54,4.48,2.92,6.24,4.95,4.61,5.3,4.14,9.25-2.84,12.79-5,2.55-10.6,3.48-16.14,4.31a330.6,330.6,0,0,1-33.12,2.93c-6.62.32-13.23.16-19.84.41-15.92.59-31.84.7-47.76.48-9.45-.13-18.91-.46-28.34-1.1-11.78-.81-23.58-1.65-35.12-4.39a35.25,35.25,0,0,1-9.83-3.53c-3.46-2-4.12-3.91-3.31-7.86,1.29-6.27,6.18-9.07,11.23-11.63,3.68-1.87,7.52-3.42,11.27-5.17a8.54,8.54,0,0,0,2.28-1.51c3.07-2.93,2.88-5.53-.66-7.85-4.16-2.74-9-3.46-13.77-4.43-1.51-.31-3.09-.29-4.48-1.08.27-1.52,1.5-1.13,2.4-1.08,19.23.94,38.47.3,57.69.74,13.42.31,26.85.77,40.27,1.06,7.54.16,15.09-.1,22.64,0,12.22.1,24.45.2,36.65.69,11.7.47,23.37.35,35.05.35,13.16,0,26.31,1,39.47.59A4.37,4.37,0,0,1,391.79,370.29Z" transform="translate(-29.77 -94.3)"/><path class="cls-3" d="M32.51,182.36c1.9-10.08,12.1-19.16,23.16-20,5.62-.45,11.3-.75,16.86-2,6.69-1.5,11.18-5.45,14.3-11.38,2.73-5.21,4.61-10.84,7.86-15.78,5.45-8.31,13.08-13.47,23-14.28,8.9-.72,15.14,4.13,19.49,11.51,2,3.39,3.6,7,5.38,10.53a9.78,9.78,0,0,1,1.81,2.19,60,60,0,0,0,5.14,8.15c2.83,3.49,6.13,5.23,10.82,4.38,5.13-.93,10.31-1.68,15.61-.74,6.26,1.11,10.92,4.11,13.51,10,1,2.44,1.79,5,2.64,7.5a17.17,17.17,0,0,0,3.94,6.81c.76.76,2,1.57.93,3-1.58,1.28-3.48,1.06-5.3,1.07q-19.19,0-38.39,0-57.72,0-115.44,0C36,183.32,34.09,183.71,32.51,182.36Z" transform="translate(-29.77 -94.3)"/><path class="cls-4" d="M334.32,139.74c-8.26.73-15.28,4.22-21.45,9.61a36.91,36.91,0,0,0-11.71-1.44c-8.23.31-16.33-1.22-24.51-1.44-8.45-.22-16.82-1.55-25.31-1.53a80.69,80.69,0,0,1-15.11-1.18c-6.83-1.29-13.75-.95-20.63-1.33-4-.22-8.08-.82-12.1-.76-6.1.08-12-1.75-18.06-1.59a3.39,3.39,0,0,1-2.57-.77c-.58-2.19,1.15-1.6,2.16-1.71a170.68,170.68,0,0,0,22.57-3.69c10.18-2.53,19.08-7.62,27.62-13.49,8.94-6.16,17.4-13,26.87-18.4,7.17-4.07,14.61-7.32,23.05-7.51h2.74c11.66.41,21.62,5.22,30.71,12.09,8,6,13.48,14,17.6,22.92a72.71,72.71,0,0,1,3.18,7c.83,2.48.51,2.9-2.07,3A7,7,0,0,0,334.32,139.74Z" transform="translate(-29.77 -94.3)"/><path class="cls-5" d="M391.79,370.29a3,3,0,0,1-1,.41c-8.27.05-16.54.57-24.79-.26-.92-.1-1.84-.14-2.75-.15-7.46,0-14.92-.13-22.38,0-14.35.3-28.68-.51-43-.7-12.27-.16-24.54-.41-36.81-.44-5.5,0-11,.33-16.48-.08-7.91-.59-15.82,0-23.69-.54-15.82-1-31.65,0-47.45-.58-5.75-.23-11.55,0-17.27-.89-.28,0-.62.3-.93.46-5.72-.6-11.44-1.24-17.17-1.78-6-.57-12-1.06-18-1.56-8.1-.69-16.27-.72-24.27-2.27-3.17-.61-6.63-1.11-7.93-4.91a4,4,0,0,1,2.42-.34c11.48,1,23,0,34.48.58,15.26.73,30.52.05,45.78.8,4.28.2,8.62.21,12.93.21,18.49.05,37,.52,55.47.69,12,.11,24.09,0,36.11.62s24.32-.24,36.43.46c10.95.64,21.9.28,32.84.6,15.16.44,30.34.54,45.52.46a4.13,4.13,0,0,1,3.1.88A49.28,49.28,0,0,1,391.79,370.29Z" transform="translate(-29.77 -94.3)"/><path class="cls-2" d="M93.26,348.19c-15.85,0-31.69-.1-47.54,0a7,7,0,0,1-6.18-3.07,45.22,45.22,0,0,1-9.74-27.27c-.46-12.35,4.14-23,12-32.28,5.77-6.78,11.87-13.28,17.72-20a65.21,65.21,0,0,0,11.78-19.77c4.83-12.67,6.9-26,9.32-39.26.85-4.68,1.94-9.32,2.89-14,.21-1,.32-2,.47-3,3.85-1.8,7.81-1,11.76-.48,1.33,1,.69,2.36.42,3.55-1.62,7.18-3,14.39-4.29,21.63C90,224.71,88,235.07,84.29,245.06c-4,10.76-10.57,19.72-18.31,28-4.47,4.76-8.88,9.57-13,14.64a46.17,46.17,0,0,0-3.24,53.89c2.26,3.54,4.79,5.5,9.36,5.35,10.39-.35,20.8-.13,31.2-.08,1.29,0,2.83-.45,3.68,1.14A.44.44,0,0,1,93.26,348.19Z" transform="translate(-29.77 -94.3)"/><path class="cls-6" d="M93.26,348.19l.61,0a3.09,3.09,0,0,1,2.51-.9c15.7,0,31.4-.22,47.1.08,11.5,0,23,.19,34.5-.1a4,4,0,0,1,1-.13c3.2.31,6.42.06,9.63.23,6-.18,12-.22,18,0,11.2.05,22.4,0,33.6,0,6.45.21,12.9-.44,19.34,0,11.18.1,22.36,0,33.54,0a7.71,7.71,0,0,0,2.7-.38,4.22,4.22,0,0,1,1-.2c3.38.8,6.83.35,10.25.55,2.84-.26,5.69-.13,8.53-.14,19.73-.07,39.47.13,59.2-.11a4.18,4.18,0,0,1,1.06,0,23.53,23.53,0,0,0,5.5.27q12.69,0,25.4,0a9.42,9.42,0,0,0,3.54-.38,4.16,4.16,0,0,1,1-.2c3.36.8,6.79.37,10.18.54,10.21-.25,20.41-.09,30.61-.08a4.46,4.46,0,0,1,2.39.55l.38.39c-.78,3-3.05,4.62-5.68,5.84a20.86,20.86,0,0,1-8.16,1.89c-3.73.19-7.46.3-11.2.3-22.1,0-44.19-.37-66.29-.61-10.48-.11-21,.11-31.47-.49-11.42-.67-22.85.08-34.24-.54-14.27-.78-28.55.09-42.8-.58-10.31-.48-20.63,0-30.92-.51-13.43-.63-26.88,0-40.29-.58-12.8-.51-25.61.05-38.38-.57-13.54-.67-27.07-.23-40.6-.4-3.33-.05-6.61-.42-9.91-.68-1.24-.1-2.71-.16-2.75-2Z" transform="translate(-29.77 -94.3)"/><path class="cls-2" d="M332.19,211.07l113.22.05a56.74,56.74,0,0,1,11.08,27.76c.95,8.06.5,16.11.15,24.19-.37,8.6-.81,17.27,1,25.82,2.11,9.8,8,16.92,15.85,22.74,6.05,4.51,11.94,9.16,16,15.66A25.71,25.71,0,0,1,493,346.57c-.36,1.89-1.77,1.56-3,1.57q-17.54,0-35.07.06l-.11-.05c.64-1.78,2.22-1.35,3.49-1.37,6.08-.08,12.16,0,18.24,0,3.56,0,3.71-.21,4.05-3.66.78-7.87-2-14.45-7.22-20.16a65,65,0,0,0-9.68-8.62,98.83,98.83,0,0,1-8.57-7.4c-7.08-6.6-10-15-11.06-24.32-1-8.66,0-17.27.43-25.89.77-14.33-1-28.11-8.5-40.74a6.4,6.4,0,0,0-6.24-3.47q-46,.12-92,.05a22.61,22.61,0,0,1-3.59-.09C333.3,212.3,332.14,212.48,332.19,211.07Z" transform="translate(-29.77 -94.3)"/><path class="cls-7" d="M392.9,362c-11.85,0-23.72.36-35.55-.09-13.39-.5-26.8.11-40.15-.58-12.52-.64-25,.1-37.51-.5-9.25-.44-18.49-.18-27.72-.53-14.67-.56-29.34-.22-44-.6-9.52-.24-19-.17-28.54-.52-12.73-.47-25.47-.21-38.2-.55-15.83-.43-31.67-.45-47.5-.53A17,17,0,0,1,87.82,357c-.16-1.73,0-3.36,1.57-4.49,12,.63,24.1-.4,36.12.63,1.48.12,3,.13,4.42.12,22.17-.19,44.33.44,66.49.72,11.31.14,22.64,0,34,.42,16.54.59,33.1.12,49.64.65,10.31.33,20.62-.09,30.9.51,13,.76,26-.1,38.92.55,14.64.74,29.26.21,43.89.48,1.45,0,3-.23,4.18,1C396,358.8,393.21,359,392.9,362Z" transform="translate(-29.77 -94.3)"/><path class="cls-2" d="M96.09,189.59H84l-48-.05c-4.26,0-4.69-.51-4-4.77.14-.8.33-1.6.49-2.41H192.84c1.54,0,3.17.29,4.39-1,3.61-1.07,8.26,1,9.69,4.35,1.17,2.72.14,4.5-2.8,4.79a25.19,25.19,0,0,1-2.75.07q-50.13,0-100.24,0C99.42,190.49,97.6,190.84,96.09,189.59Z" transform="translate(-29.77 -94.3)"/><path class="cls-8" d="M397.9,357.58c-8.57,0-17.14,0-25.71,0-18.49-.08-37-.44-55.48-.73-10.29-.16-20.62.23-30.89-.45-12.79-.86-25.57,0-38.35-.51-15-.56-30.1-.07-45.12-.66-10.49-.41-21,0-31.44-.43-14.67-.58-29.37-.08-44-.67-11.23-.46-22.44-.14-33.66-.41a5.63,5.63,0,0,1-3.84-1.17c.38-1.57,1.66-2.37,2.8-3.28.46,1,1.34,1.05,2.3,1.15a179.79,179.79,0,0,0,19,.53c8.28,0,16.59-.38,24.86.09,12.69.72,25.39-.14,38.05.59,10.49.6,21,.06,31.43.44,13.84.51,27.7.11,41.51.69,11.78.49,23.55-.05,35.3.44,14,.59,28,.05,41.92.66,10.22.44,20.43-.17,30.6.48,14.43.91,28.87-.13,43.26.6,10.22.52,20.43-.07,30.6.57,3.34.21,6.72-.43,10,.43a32.09,32.09,0,0,1-8.6,1c-8.05.13-16.11.05-24.17,0A56.2,56.2,0,0,0,397.9,357.58Z" transform="translate(-29.77 -94.3)"/><path class="cls-5" d="M427.42,363.05c7.34-.13,14.28.4,21,2.64a21.69,21.69,0,0,1,3.3,1.38c1.46.77,3.09,1.55,3.09,3.53s-1.63,2.95-3.16,3.8c-3.85,2.15-8.14,2.92-12.4,3.45a82.26,82.26,0,0,1-30.63-1.49,17.51,17.51,0,0,1-6.54-2.82c-2.39-1.84-2.39-3.38-.15-5.38s5.23-2.64,8.05-3.37A62.13,62.13,0,0,1,427.42,363.05Z" transform="translate(-29.77 -94.3)"/><path class="cls-2" d="M334.32,139.74a3.44,3.44,0,0,1,1-.45c4.23-.49,4.36-.54,2.65-4.29-4.16-9.1-8.64-18-16.33-24.81-9.35-8.29-20-13.64-32.5-15.2a5.28,5.28,0,0,1-1.24-.48,60.09,60.09,0,0,1,36.8,9,54.72,54.72,0,0,1,20.59,22.36c3.23,6.48,6.07,13.16,9.09,19.75.25.54.45,1-.14,1.44C348.84,141.16,342,139.19,334.32,139.74Z" transform="translate(-29.77 -94.3)"/><path class="cls-2" d="M285.14,94.51c-2.92.69-5.87,1.26-8.75,2.1-9.4,2.74-17.51,8-25.42,13.52-9.53,6.7-18.64,14-29.12,19.28a80.38,80.38,0,0,1-26.57,7.64c-4.14.51-8.28,1.09-12.42,1.63a2.89,2.89,0,0,1-2.25.86c-11.85.68-23.7,1.28-35.38,3.65a7.6,7.6,0,0,1-1.65-.05,3.48,3.48,0,0,1-1-2.2c4.84-1.19,9.82-1.29,14.73-1.6,12.08-.77,24.16-1.34,36-4,11.3-2.52,21.35-7.74,30.75-14.34,7.89-5.55,15.5-11.47,23.7-16.57C259.22,97.29,271.47,93.3,285.14,94.51Z" transform="translate(-29.77 -94.3)"/><path class="cls-2" d="M136.78,383.62c-6.32-.53-12.78-.57-19-2.69a7.13,7.13,0,0,1-1-.33c-1.41-.77-3.45-1.07-3.44-3.13s2-2.58,3.45-3.09c8.31-2.84,16.89-3.31,25.57-2.74a57.49,57.49,0,0,1,13.3,2.06c2.06.64,4.85,1,5,3.64s-2.68,3.2-4.72,3.83C149.72,383.06,143.27,383.16,136.78,383.62Z" transform="translate(-29.77 -94.3)"/><path class="cls-9" d="M332.19,211.07c.88,1,2.07.55,3.11.55,31.87,0,63.73.07,95.6-.05,2.74,0,4.09,1.05,5.37,3.22A63.79,63.79,0,0,1,445,241.48c.95,9.67-.21,19.23-.52,28.83-.36,11.13.38,22.19,7.25,31.58,3.63,5,8.54,8.82,13.49,12.53,5.92,4.44,11.26,9.42,14.39,16.37,2.19,4.85,2.2,9.92,1.67,15-.17,1.7-1.47,1.81-2.88,1.8q-10.36-.06-20.72,0c-1,0-2.05-.3-2.9.51l-33.72-.07a4.18,4.18,0,0,1-1.25-2.66c-.78-4.76-1.92-9.46-2.72-14.22a12.09,12.09,0,0,0-1.63-4.58c.46-1.67,2-1.27,3.14-1.61,1-.28,2-.41,2.93-.62,2.16-.41,4.34-.75,6.51-1.15a1.86,1.86,0,0,0,1.74-2.51c-1.27-6.77-2.6-13.53-3.92-20.29-.22-1.14-.75-1.91-2-1.74-2.34.3-4.83.3-6.44,2.52-1.86-1-4.05-.23-5.93-1.14a11,11,0,0,1-1.11-4c-4.51-22.71-8.81-45.48-13.22-68.21-.94-4.84-1.12-4.91-6-3.7a11.74,11.74,0,0,0-3,1.35c-3.08-.63-6,.37-9,.94-6.6,1.27-13.2,2.54-19.81,3.76a6.21,6.21,0,0,0-5.05,4.08c-6.45,15.26-13.14,30.43-19.71,45.65-5.11,11.83-10.18,23.68-15.39,35.48a11.81,11.81,0,0,0-.81,7.48q1.75,8.67,3.42,17.34c.6,3.08.8,3.27,3.85,2.67,11.75-2.31,23.52-4.49,35.25-6.85q4.6-.93,9.24-1.7c2.75-.46,3.67.22,4.32,2.94.59,2.41,1,4.87,1.35,7.33a3.18,3.18,0,0,1-.54,2.87c-.53.69-1.29.62-2,.62l-66.63-.08c-.57-1.42.07-2.71.45-4,3.94-13.67,6.58-27.58,6.42-41.83-.11-10.39-1.91-20.51-7.86-29.45-6.39-9.61-15.6-14.77-26.68-17a5.78,5.78,0,0,0-1.09.08c-1.42-.19-3,.13-3.95-1.43,3-5.21,4.35-11.06,6.5-16.59,1.86-4.79,3.58-9.63,5.27-14.48a8.7,8.7,0,0,1,2.59-4.14c3.93-3.16,7.95-6.21,11.94-9.3a3.84,3.84,0,0,1,2-.86c3.13.92,4.89,3.2,5.19,6.63.23,2.63-.47,5.11-1,7.63-.89,4.24.4,6.86,4.26,8.81,1.56.79,3.23,1.33,4.83,2,3.86,1.67,5.14,4.27,4.27,8.43-.55,2.61-1.79,5-1.87,7.76a9.26,9.26,0,0,0,2.81,7.2c2.15,2.16,4.65,3.92,6.74,6.13,2.87,3,3.17,4.54,1.43,8.7,1.14-.76,2.07-1.39,3-2.06a24.27,24.27,0,0,0,5.53-5.36c2.77-3.67,3.26-7.81.9-11.65-2.89-4.71-3.27-9.21-.81-14.1,2.79-5.54,1.62-10.31-3-14.38A16,16,0,0,1,332,222c-2.88-3-2.67-6.47-1.23-10,.23-.55.34-1.31,1.25-1.19A4,4,0,0,1,332.19,211.07Z" transform="translate(-29.77 -94.3)"/><path class="cls-8" d="M96.09,189.59q36.61,0,73.22-.07h34.81c2.58,0,3.09-.74,2.22-3.15a6,6,0,0,0-4-3.86c-1.67-.5-3.38-.81-5.08-1.2-3.86-2.7-5.44-6.78-6.72-11.05-.5-1.67-1.06-3.32-1.6-5,.38-1.82,1.85-1.33,2.85-1.1,5.69,1.3,11.5,1.19,17.27,1.57,1.46.1,2.93.24,4.4.23a10.21,10.21,0,0,1,3,.05c7.69,2.48,15.71.5,23.48,1.81a37.24,37.24,0,0,0,9.36.35c6.8-.58,13.25,1.91,20,1.77,8.81-.19,17.58,1.32,26.4,1a26,26,0,0,1,4.14.11c3,.37,3.45,1,3,4.17-.12,8.24-2.65,15.1-10.51,19.15a27.75,27.75,0,0,0-7.66,5.33,10.36,10.36,0,0,0-2.84,4.65c-1.19,5,.15,6.74,5.22,6.76,2.11,0,4.23.07,6.34.11a1.41,1.41,0,0,1-.32,1.27,4.08,4.08,0,0,1-1.21,1.1c-6.06,3.25-8.69,8.84-10.44,15.07-.46,1.65-.84,3.43-2.5,4.44a5,5,0,0,1-4.76,0,2.49,2.49,0,0,0-2.13-.24,3.07,3.07,0,0,1-3.12-.42c-.29-.23-.66-.53-1-.43-2.66.85-5.2-.21-7.8-.36-4.53-.25-9.1.18-13.53-1.16a4,4,0,0,0-2.18-.09c-6.11,1.74-12.24,0-18.35,0-3.36,0-6.31-1.88-8.65-4.36a4.37,4.37,0,0,0-4-1.59.53.53,0,0,0-.09.8c.55.89,1.88,1.61,1.13,2.84a2.9,2.9,0,0,1-3.66,1.18c-3-1.55-5.93-.75-9-.56-4.33.28-8.73-1-13.11.14-.37.09-.57-.38-.77-.69-.61-1.7-.39-3.46-.4-5.2,0-5.32-.09-5.41-3.83-5.4s-3.67.06-3.67,5.52v54.41c0,4.7,0,9.4,0,14.09,0,1.36.16,2.79-.89,3.94-1.4.09-1.27-1.07-1.43-1.87a18.63,18.63,0,0,1-.13-3.58V223.62c0-.92,0-1.84,0-2.76-.1-2.91-.34-3.23-3.16-3.25-8.27-.06-16.55,0-24.82-.07-2.34,0-3.66,1.42-5.32,2.48-.08,0-.23.06-.26,0-2.2-2.83-5.29-2.72-8.4-2.58a5.9,5.9,0,0,1-2.18-.23c-4.8-1.73-9.75-1.2-14.68-1.2a50.56,50.56,0,0,1-8.17-.9c-5-.84-10.09.86-15-.8-1.42-.48-2.88.62-4.35.08C92.34,206.05,94.07,197.79,96.09,189.59Z" transform="translate(-29.77 -94.3)"/><path class="cls-10" d="M302.84,175.23c.4-2.67-1.18-3.36-3.4-3.37-2.86,0-5.72-.09-8.57,0-4.59.17-9.11-1-13.64-.91-3.28,0-6.53-.08-9.8-.19-2.11-.08-4.28.19-6.28-.59-4.26-1.66-8.7-1-13.07-1.05A104.37,104.37,0,0,1,233.3,168c-2.32-.37-4.57.61-6.84.48-5.81-.35-11.46-2.18-17.38-1.91-1,0-2.16-.09-3.23-.08a67.57,67.57,0,0,1-15.2-1.74,1.54,1.54,0,0,0-1.74.5c-4.53-9.61-14.21-10.66-22.26-9.68-2.91.35-5.8.92-8.71,1.17a9.1,9.1,0,0,1-7.19-2.91c-3.17-3-5.23-6.84-7.17-10.71,2.63-1.78,5.77-1.71,8.68-2.11a250.45,250.45,0,0,1,30.6-2.35,2.07,2.07,0,0,0,2,.55c4.29-.41,8.38.76,12.55,1.39,2.47.38,5-.3,7.58.21,4.23.84,8.58.46,12.88.67a236.69,236.69,0,0,1,23.91,2c5.11.77,10.37.53,15.56.7,4.67.16,9.3.63,13.94,1.09,3.76.37,7.6.1,11.33.63,9.1,1.29,18.29.72,27.4,1.57a3.21,3.21,0,0,1,2.82,1.85,38.21,38.21,0,0,0-8.66,17.54C303.67,169.66,303.29,172.45,302.84,175.23Z" transform="translate(-29.77 -94.3)"/><path class="cls-11" d="M332,210.73c-.5,1.56-1.07,3.09-1.46,4.67-.61,2.48.6,4.42,2.05,6.26-.08,15.23,0,30.46,0,45.69a13.72,13.72,0,0,1-.3,3.56,16.13,16.13,0,0,1-5,3.1c3.85-7.27,2.13-7.62-3.06-12.36-.4-.37-.89-.65-1.31-1-6.11-5.12-7-8.09-4.52-15.69.33-1,.64-2.11.87-3.18a5.45,5.45,0,0,0-3.4-6.71c-2-.88-4.14-1.55-6.09-2.55-3.58-1.83-4.79-4.62-4.2-8.63.33-2.18,1.17-4.23,1.26-6.47.17-3.71-1.2-6.41-4.58-8-.17-1,.51-1.53,1.16-2,6.75-5.26,13.39-10.65,20.25-15.75a3,3,0,0,1,2-.85l2.8,3C333,198.69,334.33,204.32,332,210.73Z" transform="translate(-29.77 -94.3)"/><path class="cls-12" d="M325.58,190.75q-10.79,8.49-21.57,17c-.64.5-1.22,1.08-1.83,1.63-4.57,3.54-9.12,7.11-13.73,10.61a5.87,5.87,0,0,0-1.78,3c-3.5,9.67-7,19.35-10.51,29-.33.92-.24,2.37-1.86,2.34-1.26.66-2.08.05-2.76-1a3.06,3.06,0,0,1,.14-2.15c1.93-5.54,4.06-11,6-16.57a4.65,4.65,0,0,1,1.39-2c1.3-3.44,2.71-6.83,3.85-10.32a11.31,11.31,0,0,1,4.53-6.3c2.12-1.41,4-3.2,6-4.81q13.85-10.66,27.69-21.32C323.72,187.88,323.7,187.86,325.58,190.75Z" transform="translate(-29.77 -94.3)"/><path class="cls-13" d="M273.89,405.65a81.31,81.31,0,0,1-22.37-2.22c-1.76-.44-4.37-.67-4.36-3s2.63-2.61,4.42-3a100.41,100.41,0,0,1,30.6-1.9c4.67.42,9.33.64,13.86,1.88,1.92.52,4.73,1,4.7,3.12s-2.82,2.41-4.75,2.91A79.84,79.84,0,0,1,273.89,405.65Z" transform="translate(-29.77 -94.3)"/><path class="cls-6" d="M91.12,214.41a6.74,6.74,0,0,1,6-.67,9.74,9.74,0,0,0,7,0c1.71-.68,3.34.61,5.06.71,5.32.3,10.69,1.32,15.93.87,5.48-.48,10.45,2.46,15.9,1.4,2.2-.43,2.07,1.82,2.56,3.21s-.51,2.27-1.14,3.23c-6.86,10.37-14,20.53-21,30.82-9.08,13.42-18.35,26.71-27.41,40.14a8.83,8.83,0,0,0-1.59,5.17c0,6.45,0,12.89,0,19.33,0,3.07.23,3.3,3.31,3.3q21.27,0,42.54,0c1.1,0,2.21,0,3.31.07,1.61.11,2.68.87,2.69,2.54,0,7.63.44,15.26-.22,22.89a4,4,0,0,1-.55.75H93.87c-.93-.91-2.1-.52-3.16-.52-11.14,0-22.28-.17-33.42.08a7.46,7.46,0,0,1-6.86-3.63,47.9,47.9,0,0,1-8.63-25.7c-.51-13.64,4.81-24.72,13.45-34.75,7.3-8.47,15.63-16.06,21.69-25.57,5.4-8.46,8.62-17.82,10.82-27.54C89,225.18,90,219.78,91.12,214.41Z" transform="translate(-29.77 -94.3)"/><path class="cls-1" d="M421.71,324.94c-1.89,1.21-4.23.67-6.19,1.6-.93,1.25-2.39,1.21-3.69,1.51-3.12.73-3.25.87-2.63,4.09.75,3.85,1.57,7.69,2.3,11.55.21,1.13.68,2.33-.29,3.38a.78.78,0,0,0-.09.45c-.42.5-1,.37-1.53.37H376.86a2.4,2.4,0,0,1-1.06-.22l-.51-.13c0-3.8-1.26-7.41-1.76-11.14-.23-1.75-1.46-1.63-2.7-1.39l-28.63,5.61c-6.12,1.2-12.25,2.38-18.37,3.59-1.47.3-2.12-.12-2.41-1.69-1.35-7.4-2.8-14.79-4.3-22.17a5.5,5.5,0,0,1,.62-3.43q11-25.33,21.91-50.65c4.82-11.14,9.69-22.27,14.46-33.43a4.69,4.69,0,0,1,4-3.16c8.86-1.57,17.66-3.42,26.49-5.15,1.25-.25,2.58-.57,3.31,1,1.24.94,1.27,2.4,1.52,3.72,4.28,22.59,8.71,45.15,13.09,67.72.75,3.89.78,3.91,4.64,3.22,1.5-.26,3-1,4.56-.17.8-.12,1.61-.21,2.4-.39,1.5-.34,2.68-.13,3.1,1.59,1,.72,1.12,1.86,1.35,2.92,1.25,5.94,2.32,11.92,3.46,17.88C422.19,323,422.43,324,421.71,324.94Z" transform="translate(-29.77 -94.3)"/><path class="cls-1" d="M271.82,253.11c.62.82,1.67.79,2.48,1.24l3.68,1c6.33,1,11.11,4.68,15.32,9.11,7.76,8.16,11,18.27,12,29.27,1.61,17-1.68,33.3-6.18,49.48-.41,1.46-.68,3.12-2.35,3.86l-.07.58c-.08,0-.16.12-.24.12-12.05.23-24.11.32-36.16,0-.86-1.05-.31-2.1,0-3.12,4.88-14.45,7.65-29.35,9.43-44.45a44.82,44.82,0,0,0,0-8.82,12.47,12.47,0,0,0-2.9-7.6c-4.38-3.51-9.14-2.85-12.3,1.81-3.61,5.34-5.35,11.45-6.95,17.6A239.78,239.78,0,0,0,240.88,340a17.14,17.14,0,0,0-.27,5c0,2.15-.66,3.07-3.06,3-10.12-.13-20.24-.05-30.36-.06-1.48-.34-1.26-1.63-1.41-2.66-1.22-8.73-.41-17.42.72-26.1,1.8-13.84,5.13-27.3,11-40,3.6-7.82,8.18-15,15.16-20.39,8.62-6.67,18.43-8.88,29.06-7.85C265.13,251.21,268.71,251.2,271.82,253.11Z" transform="translate(-29.77 -94.3)"/><path class="cls-6" d="M271.82,253.11c-4.07-.53-8.13-1.36-12.22-1.55-16.15-.74-28.41,6-36.9,19.69-5.69,9.21-9.15,19.29-11.79,29.71a142.7,142.7,0,0,0-4.8,38.9c.07,2.57.38,5.12.58,7.69.29.25.25.46-.1.61l-18.26-.08a3.38,3.38,0,0,1-.85-2.55q-.12-10.21,0-20.42A4.41,4.41,0,0,1,188,323c1.52-1.6,3.56-1,5.4-1.3a53.5,53.5,0,0,0,6.33.11c1.13-.06,2-.45,2-1.75,0-7.52.48-15-.25-22.54,0-.37,0,.11-.14-.23-.76-.89-1.79-.81-2.8-.81-2.48,0-5,0-7.43,0-1.09,0-2.24.09-3.06-.89a7.5,7.5,0,0,1-.64-4q0-29.14,0-58.31c0-1.52-.3-3.17,1-4.42s2.73-1.35,4.64-1.34c4.2,0,8.54,1.75,12.66-.46,1.11-.59,1.94.06,2.77.65a4.68,4.68,0,0,0,2.75,1.13c1,0,2.31-.14,2.72-1,.5-1-.8-1.4-1.5-1.93-.5-.37-1.28-.68-1-1.44a1.77,1.77,0,0,1,1.18-1c1.62,0,3.71-.16,4.61,1.08,3.34,4.58,7.94,5.5,13.12,5.42a32.46,32.46,0,0,1,7.67.42,7.41,7.41,0,0,0,5.38-.59,3.15,3.15,0,0,1,3.19-.19c3.48,2.3,7.49.29,11.24,1.48,1.55.49,3.94-.41,6,.75.65.37,1.92-.26,2.88-.52.42-.11,1.11-.64,1.15-.59,1.64,2.22,4.33.41,5.75,1.27,2,1.16,3.58.75,5.4.71Q275.44,242.88,271.82,253.11Z" transform="translate(-29.77 -94.3)"/><path class="cls-14" d="M267.37,283c2.65,2.43,3.15,5.71,3.36,9,.42,6.63-.51,13.18-1.63,19.69-2,11.56-4.27,23.05-8.32,34.11-.16.43-.38.83-.57,1.25s-.09.85-.54,1.06H240.38a.53.53,0,0,1,.08-.8c1.54-.89,3.24-.6,4.87-.55,2,.06,3-.64,3.13-2.79.63-10.23,2.62-20.26,4.73-30.26a137.35,137.35,0,0,1,5.62-19.92,24.52,24.52,0,0,1,5.48-9.18A4.45,4.45,0,0,1,267.37,283Z" transform="translate(-29.77 -94.3)"/><path class="cls-4" d="M296.8,347c2.67-6,3.9-12.43,5.18-18.81,2.54-12.67,4-25.42,2.06-38.36-2.49-16.21-10.42-28.28-26.06-34.55,2.89-.56,5.46.63,8,1.55,16.29,5.79,24.68,17.89,27.29,34.5,2.86,18.17-.75,35.69-5.49,53.08-.33,1.23-.78,2.43-1.18,3.64-2.43,0-4.86,0-7.28.06A2.78,2.78,0,0,1,296.8,347Z" transform="translate(-29.77 -94.3)"/><path class="cls-4" d="M188.4,322.76q0,12.66-.07,25.32c-3.11-.18-6.27.64-9.34-.45a3.17,3.17,0,0,1-.78-2.54q0-10,0-20a3.7,3.7,0,0,1,.57-2.36A11.23,11.23,0,0,1,188.4,322.76Z" transform="translate(-29.77 -94.3)"/><path class="cls-4" d="M411.21,347.07c-1.06-5.5-2.06-11-3.2-16.5-.39-1.89-.1-2.91,2.09-3.07a46.29,46.29,0,0,0,5.42-1c1.52-.1,1.72,1,1.93,2.12q1.79,9.72,3.6,19.43c-2.4,0-4.79,0-7.19.06A2.79,2.79,0,0,1,411.21,347.07Z" transform="translate(-29.77 -94.3)"/><path class="cls-15" d="M240.43,347.54c0,.21,0,.42-.05.63H206.59c0-.2.07-.41.1-.61,10.39,0,20.78.07,31.17.16,1.63,0,2-.69,2-2.17,0-2.08-.49-4.21.39-6.25C241.91,342,241.69,344.76,240.43,347.54Z" transform="translate(-29.77 -94.3)"/><path class="cls-15" d="M259.67,348.16l.54-1.06c.52.71,1.3.58,2,.58l34.5-.06c-.71.84-1.7.55-2.58.55Q276.92,348.19,259.67,348.16Z" transform="translate(-29.77 -94.3)"/><path class="cls-16" d="M375.8,347.68l35.32-.16c-.45.81-1.24.65-1.95.65H377.58A2.14,2.14,0,0,1,375.8,347.68Z" transform="translate(-29.77 -94.3)"/><path class="cls-17" d="M143.59,348.16l.11-.64a4.63,4.63,0,0,1,3.39-.84q13.92,0,27.83,0a6,6,0,0,1,3.21.6l.38.39c-.76.75-1.73.51-2.62.51Q159.74,348.19,143.59,348.16Z" transform="translate(-29.77 -94.3)"/><path class="cls-15" d="M179,322.8l0,24.83a3.87,3.87,0,0,0-.48,0l-.07,0a4.57,4.57,0,0,1-.95-3.35c0-6.06-.07-12.11,0-18.16C177.53,324.87,177.2,323.29,179,322.8Z" transform="translate(-29.77 -94.3)"/><path class="cls-4" d="M411.69,300c-2.33.5-4.67.94-7,1.52-1.61.41-2.27,0-2.58-1.71-1.41-7.76-2.95-15.5-4.46-23.24q-4.82-24.84-9.64-49.69c-.09-.45-.1-.92-.15-1.37.1-.82.13-1.59,1.28-1.78,2.25-.37,4.66-1.65,6.68-1.18,2.65.62,1.74,3.78,2.15,5.85,3.37,17.12,6.61,34.27,9.92,51.41,1.13,5.84,2.35,11.65,3.5,17.48C411.58,298.21,411.6,299.13,411.69,300Z" transform="translate(-29.77 -94.3)"/><path class="cls-18" d="M332.23,270.91c-1-.77-.65-1.85-.66-2.82q0-21.76,0-43.51c0-1.08-.26-2.26,1-2.92.45.45.91.9,1.36,1.36,6.86,6.81,7.34,9.07,3.65,18-1.38,3.33-1.84,6.67.35,9.7C343.61,258.58,339.25,266.56,332.23,270.91Z" transform="translate(-29.77 -94.3)"/><path class="cls-4" d="M421.71,324.94q-2.25-11.85-4.52-23.71c-.17-1.55.55-2.27,2.05-2.65,6.75-1.73,6.72-1.76,8,5,1.13,5.92,2.22,11.85,3.5,17.74.38,1.75-.05,2.34-1.73,2.53C426.57,324.17,424.21,325,421.71,324.94Z" transform="translate(-29.77 -94.3)"/><path class="cls-3" d="M179,322.8c-.91.81-.51,1.89-.52,2.85,0,7.32,0,14.65-.07,22l-34.74-.11c0-7.37-.1-14.74,0-22.1,0-2.2-.64-2.81-2.81-2.8-15.38.09-30.76,0-46.14.12-2.44,0-3.36-.51-3.29-3.16.19-6.81.14-13.63,0-20.44a8.78,8.78,0,0,1,1.73-5.35q25-36.43,49.83-72.93c.21-.3.36-.64.54-1,1.47-3,3.95-3.41,7-3.33,8.18.2,16.37.18,24.56,0,2.61-.05,3.41.62,3.4,3.33-.1,24.19-.07,48.37,0,72.56,0,1.07-.37,2.22.44,3.19l.49-.12a60.53,60.53,0,0,1,14.16.81,5.8,5.8,0,0,1,.68,3.46q0,9.24,0,18.48c0,1.35.18,2.8-1,3.86-1.54,1-3.29.25-4.9.6Z" transform="translate(-29.77 -94.3)"/><path class="cls-4" d="M188.44,228.79q0,31.48-.05,63c0,1.29,0,2.58-.07,3.87a30.66,30.66,0,0,1-9.32,0h0q0-37.77.05-75.52c0-3.52,0-3.52,3.6-3.52,5.74,0,5.74,0,5.75,5.82C188.4,224.56,188.43,226.68,188.44,228.79Z" transform="translate(-29.77 -94.3)"/><path class="cls-4" d="M356.45,310.63c-2.31.52-4.62,1.05-6.93,1.55-1.95.43-2.26-.21-1.49-2,2.5-5.72,4.84-11.5,7.33-17.23A96.67,96.67,0,0,0,361,276.88a3.73,3.73,0,0,1,1.29-2.05q1,7.07,2,14.12a12.79,12.79,0,0,1-.94,7.75c-1.73,3.75-3.28,7.58-4.9,11.37A4.9,4.9,0,0,1,356.45,310.63Z" transform="translate(-29.77 -94.3)"/><path class="cls-19" d="M356.45,310.63c2.33-5.45,4.63-10.9,7-16.33a14.4,14.4,0,0,0,.82-5.35l3.6,18.19a1.29,1.29,0,0,1-1.19,1.75C363.26,309.4,359.94,310.52,356.45,310.63Z" transform="translate(-29.77 -94.3)"/><path class="cls-4" d="M240.43,347.54c-.06-2.75-.13-5.5-.19-8.25,1.77-16.94,4.81-33.6,11-49.55a17.74,17.74,0,0,1,4.72-7,8.08,8.08,0,0,1,11.38.33c-5.34,3.7-7.46,9.43-9.27,15.23-4,12.62-6.28,25.6-8.25,38.65a65.13,65.13,0,0,0-.58,8.5c0,1.63-.5,2.36-2.22,2.26C244.85,347.55,242.64,347.58,240.43,347.54Z" transform="translate(-29.77 -94.3)"/><path class="cls-4" d="M193.3,322.16l0-25.92a32.8,32.8,0,0,1,9.49,0c0,8,0,16,.05,24,0,1.91-.55,2.76-2.5,2.49C198,322.42,195.55,323.38,193.3,322.16Z" transform="translate(-29.77 -94.3)"/><path class="cls-20" d="M202.76,296.22l-9.49,0c-3.91,0-7.82,0-11.74-.05-.85,0-1.84.38-2.53-.52l9.32,0c4,0,7.9,0,11.85.05C201.06,295.69,202,295.4,202.76,296.22Z" transform="translate(-29.77 -94.3)"/><path class="cls-4" d="M143.7,276.39l-.15,2.67c-1.43,4.15-4.37,7.39-6.76,10.93-4.5,6.65-4.58,6.6-12.48,5.94-.59-.05-1.4.16-1.28-.9,5.39-8.62,11.62-16.69,16.66-25.54,1.43-2.51,2.7-5.11,4.43-8.41v5.83C143.48,270.05,144.28,273.25,143.7,276.39Z" transform="translate(-29.77 -94.3)"/><path class="cls-19" d="M123,295c4.62,1.93,8.95.64,11.6-3.27,2.9-4.28,5.94-8.47,8.92-12.7,0,5.05,0,10.09.15,15.13,0,1.64-.71,2-2.16,2-5.69,0-11.38,0-17.06,0C123.86,296.17,122.41,296.78,123,295Z" transform="translate(-29.77 -94.3)"/><path class="cls-19" d="M143.7,276.39c0-3.16-.54-6.35.42-9.48C144.11,270.08,144.52,273.27,143.7,276.39Z" transform="translate(-29.77 -94.3)"/></svg>